REM DIRINDEX 1\2\6,1\2\7,1\2\8,1\3\9,1\3\10,1\3\11,1\4\12,1\4\13,1\4\14,1\5\15,1\5\16,1\5\17,1\5\18
REM DIRNAME cjc019,folder01,folder02,folder03,folder04,folder05,folder06,folder07,folder08,folder09,folder10,folder11,folder12,folder13,folder14,folder15,folder16,folder17
TITLE ""
FILE "2Q_t_1093-1108.mp3" MP3
  TRACK 01 AUDIO
    TITLE "13:cjc019_4248"
    INDEX 01 00:00:00
  TRACK 02 AUDIO
    TITLE "0:"
    INDEX 01 00:00:68
  TRACK 03 AUDIO
    TITLE "14:cjc019_4249"
    INDEX 01 00:01:50
  TRACK 04 AUDIO
    TITLE "0:"
    INDEX 01 00:06:06
  TRACK 05 AUDIO
    TITLE "13:cjc019_4250"
    INDEX 01 00:06:61
  TRACK 06 AUDIO
    TITLE "0:"
    INDEX 01 00:08:11
  TRACK 07 AUDIO
    TITLE "14:cjc019_4251"
    INDEX 01 00:08:68
  TRACK 08 AUDIO
    TITLE "0:"
    INDEX 01 00:11:01
  TRACK 09 AUDIO
    TITLE "13:cjc019_4252"
    INDEX 01 00:11:52
  TRACK 10 AUDIO
    TITLE "0:"
    INDEX 01 00:13:04
  TRACK 11 AUDIO
    TITLE "14:cjc019_4253"
    INDEX 01 00:13:61
  TRACK 12 AUDIO
    TITLE "0:"
    INDEX 01 00:14:64
  TRACK 13 AUDIO
    TITLE "13:cjc019_4254"
    INDEX 01 00:15:46
  TRACK 14 AUDIO
    TITLE "0:"
    INDEX 01 00:16:71
  TRACK 15 AUDIO
    TITLE "14:cjc019_4255"
    INDEX 01 00:17:55
  TRACK 16 AUDIO
    TITLE "0:"
    INDEX 01 00:20:12
  TRACK 17 AUDIO
    TITLE "13:cjc019_4256"
    INDEX 01 00:20:69
  TRACK 18 AUDIO
    TITLE "0:"
    INDEX 01 00:22:23
  TRACK 19 AUDIO
    TITLE "14:cjc019_4257"
    INDEX 01 00:23:08
  TRACK 20 AUDIO
    TITLE "0:"
    INDEX 01 00:26:48
  TRACK 21 AUDIO
    TITLE "13:cjc019_4258"
    INDEX 01 00:27:34
  TRACK 22 AUDIO
    TITLE "0:"
    INDEX 01 00:28:64
  TRACK 23 AUDIO
    TITLE "14:cjc019_4259"
    INDEX 01 00:29:48
  TRACK 24 AUDIO
    TITLE "0:"
    INDEX 01 00:30:65
  TRACK 25 AUDIO
    TITLE "13:cjc019_4260"
    INDEX 01 00:31:47
  TRACK 26 AUDIO
    TITLE "0:"
    INDEX 01 00:33:01
  TRACK 27 AUDIO
    TITLE "14:cjc019_4261"
    INDEX 01 00:33:58
  TRACK 28 AUDIO
    TITLE "0:"
    INDEX 01 00:36:09
  TRACK 29 AUDIO
    TITLE "13:cjc019_4262"
    INDEX 01 00:36:62
  TRACK 30 AUDIO
    TITLE "0:"
    INDEX 01 00:38:02
  TRACK 31 AUDIO
    TITLE "14:cjc019_4263"
    INDEX 01 00:38:67
  TRACK 32 AUDIO
    TITLE "0:"
    INDEX 01 00:41:08
  TRACK 33 AUDIO
    TITLE "13:cjc019_4264"
    INDEX 01 00:41:65
  TRACK 34 AUDIO
    TITLE "0:"
    INDEX 01 00:43:15
  TRACK 35 AUDIO
    TITLE "14:cjc019_4265"
    INDEX 01 00:43:72
  TRACK 36 AUDIO
    TITLE "0:"
    INDEX 01 00:45:10
  TRACK 37 AUDIO
    TITLE "13:cjc019_4266"
    INDEX 01 00:45:65
  TRACK 38 AUDIO
    TITLE "0:"
    INDEX 01 00:47:15
  TRACK 39 AUDIO
    TITLE "14:cjc019_4267"
    INDEX 01 00:47:70
  TRACK 40 AUDIO
    TITLE "0:"
    INDEX 01 00:49:74
  TRACK 41 AUDIO
    TITLE "13:cjc019_4268"
    INDEX 01 00:50:56
  TRACK 42 AUDIO
    TITLE "0:"
    INDEX 01 00:51:73
  TRACK 43 AUDIO
    TITLE "14:cjc019_4269"
    INDEX 01 00:52:53
  TRACK 44 AUDIO
    TITLE "0:"
    INDEX 01 00:54:58
  TRACK 45 AUDIO
    TITLE "13:cjc019_4270"
    INDEX 01 00:55:44
  TRACK 46 AUDIO
    TITLE "0:"
    INDEX 01 00:57:03
  TRACK 47 AUDIO
    TITLE "14:cjc019_4271"
    INDEX 01 00:57:64
  TRACK 48 AUDIO
    TITLE "0:"
    INDEX 01 01:00:68
  TRACK 49 AUDIO
    TITLE "13:cjc019_4272"
    INDEX 01 01:01:52
  TRACK 50 AUDIO
    TITLE "0:"
    INDEX 01 01:02:73
  TRACK 51 AUDIO
    TITLE "14:cjc019_4273"
    INDEX 01 01:03:53
  TRACK 52 AUDIO
    TITLE "0:"
    INDEX 01 01:04:60
  TRACK 53 AUDIO
    TITLE "13:cjc019_4274"
    INDEX 01 01:05:36
  TRACK 54 AUDIO
    TITLE "0:"
    INDEX 01 01:06:53
  TRACK 55 AUDIO
    TITLE "14:cjc019_4275"
    INDEX 01 01:07:39
  TRACK 56 AUDIO
    TITLE "0:"
    INDEX 01 01:09:59
  TRACK 57 AUDIO
    TITLE "13:cjc019_4276"
    INDEX 01 01:10:37
  TRACK 58 AUDIO
    TITLE "0:"
    INDEX 01 01:11:47
  TRACK 59 AUDIO
    TITLE "14:cjc019_4277"
    INDEX 01 01:12:28
  TRACK 60 AUDIO
    TITLE "0:"
    INDEX 01 01:14:59
  TRACK 61 AUDIO
    TITLE "13:cjc019_4278"
    INDEX 01 01:15:42
  TRACK 62 AUDIO
    TITLE "0:"
    INDEX 01 01:17:00
  TRACK 63 AUDIO
    TITLE "14:cjc019_4279"
    INDEX 01 01:17:53
  TRACK 64 AUDIO
    TITLE "0:"
    INDEX 01 01:20:00
